<?xml version="1.0" encoding="utf-8" standalone="no"?>
<!DOCTYPE svg PUBLIC "-//W3C//DTD SVG 1.1//EN"
  "http://www.w3.org/Graphics/SVG/1.1/DTD/svg11.dtd">
<svg xmlns:xlink="http://www.w3.org/1999/xlink" width="907.2pt" height="1123.2pt" viewBox="0 0 907.2 1123.2" xmlns="http://www.w3.org/2000/svg" version="1.1">
 <metadata>
  <rdf:RDF xmlns:dc="http://purl.org/dc/elements/1.1/" xmlns:cc="http://creativecommons.org/ns#" xmlns:rdf="http://www.w3.org/1999/02/22-rdf-syntax-ns#">
   <cc:Work>
    <dc:type rdf:resource="http://purl.org/dc/dcmitype/StillImage"/>
    <dc:date>2026-08-21T11:57:02.998884</dc:date>
    <dc:format>image/svg+xml</dc:format>
    <dc:creator>
     <cc:Agent>
      <dc:title>Matplotlib v3.11.1, https://matplotlib.org/</dc:title>
     </cc:Agent>
    </dc:creator>
   </cc:Work>
  </rdf:RDF>
 </metadata>
 <defs>
  <style type="text/css">*{stroke-linejoin: round; stroke-linecap: butt}</style>
 </defs>
 <g id="figure_1">
  <g id="patch_1">
   <path d="M 0 1123.2 
L 907.2 1123.2 
L 907.2 0 
L 0 0 
z
" style="fill: #fcfcfb"/>
  </g>
  <g id="axes_1">
   <g id="patch_2">
    <path d="M 71.28 237.6 
L 306 237.6 
C 309.578904 237.6 312.48 240.501096 312.48 244.08 
L 312.48 323.28 
C 312.48 326.858904 309.578904 329.76 306 329.76 
L 71.28 329.76 
C 67.701096 329.76 64.8 326.858904 64.8 323.28 
L 64.8 244.08 
C 64.8 240.501096 67.701096 237.6 71.28 237.6 
z
" clip-path="url(#p0e72a23062)" style="fill: #ffffff; stroke: #0b0b0b; stroke-opacity: 0.1; stroke-linejoin: miter"/>
   </g>
   <g id="patch_3">
    <path d="M 336.24 237.6 
L 570.96 237.6 
C 574.538904 237.6 577.44 240.501096 577.44 244.08 
L 577.44 323.28 
C 577.44 326.858904 574.538904 329.76 570.96 329.76 
L 336.24 329.76 
C 332.661096 329.76 329.76 326.858904 329.76 323.28 
L 329.76 244.08 
C 329.76 240.501096 332.661096 237.6 336.24 237.6 
z
" clip-path="url(#p0e72a23062)" style="fill: #ffffff; stroke: #0b0b0b; stroke-opacity: 0.1; stroke-linejoin: miter"/>
   </g>
   <g id="patch_4">
    <path d="M 601.2 237.6 
L 835.92 237.6 
C 839.498904 237.6 842.4 240.501096 842.4 244.08 
L 842.4 323.28 
C 842.4 326.858904 839.498904 329.76 835.92 329.76 
L 601.2 329.76 
C 597.621096 329.76 594.72 326.858904 594.72 323.28 
L 594.72 244.08 
C 594.72 240.501096 597.621096 237.6 601.2 237.6 
z
" clip-path="url(#p0e72a23062)" style="fill: #ffffff; stroke: #0b0b0b; stroke-opacity: 0.1; stroke-linejoin: miter"/>
   </g>
   <g id="patch_5">
    <path d="M 68.4 424.08 
C 69.354731 424.08 70.270488 424.459319 70.945584 425.134416 
C 71.620681 425.809512 72 426.725269 72 427.68 
C 72 428.634731 71.620681 429.550488 70.945584 430.225584 
C 70.270488 430.900681 69.354731 431.28 68.4 431.28 
C 67.445269 431.28 66.529512 430.900681 65.854416 430.225584 
C 65.179319 429.550488 64.8 428.634731 64.8 427.68 
C 64.8 426.725269 65.179319 425.809512 65.854416 425.134416 
C 66.529512 424.459319 67.445269 424.08 68.4 424.08 
z
" clip-path="url(#p0e72a23062)" style="fill: #e34948"/>
   </g>
   <g id="patch_6">
    <path d="M 144 424.08 
C 144.954731 424.08 145.870488 424.459319 146.545584 425.134416 
C 147.220681 425.809512 147.6 426.725269 147.6 427.68 
C 147.6 428.634731 147.220681 429.550488 146.545584 430.225584 
C 145.870488 430.900681 144.954731 431.28 144 431.28 
C 143.045269 431.28 142.129512 430.900681 141.454416 430.225584 
C 140.779319 429.550488 140.4 428.634731 140.4 427.68 
C 140.4 426.725269 140.779319 425.809512 141.454416 425.134416 
C 142.129512 424.459319 143.045269 424.08 144 424.08 
z
" clip-path="url(#p0e72a23062)" style="fill: #d9d8d2"/>
   </g>
   <g id="patch_7">
    <path d="M 290.88 424.08 
C 291.834731 424.08 292.750488 424.459319 293.425584 425.134416 
C 294.100681 425.809512 294.48 426.725269 294.48 427.68 
C 294.48 428.634731 294.100681 429.550488 293.425584 430.225584 
C 292.750488 430.900681 291.834731 431.28 290.88 431.28 
C 289.925269 431.28 289.009512 430.900681 288.334416 430.225584 
C 287.659319 429.550488 287.28 428.634731 287.28 427.68 
C 287.28 426.725269 287.659319 425.809512 288.334416 425.134416 
C 289.009512 424.459319 289.925269 424.08 290.88 424.08 
z
" clip-path="url(#p0e72a23062)" style="fill: #2a78d6"/>
   </g>
   <g id="patch_8">
    <path d="M 210.96 450.72 
L 557.732884 450.72 
L 557.732884 465.12 
L 210.96 465.12 
C 209.767032 465.12 208.8 464.152968 208.8 462.96 
L 208.8 452.88 
C 208.8 451.687032 209.767032 450.72 210.96 450.72 
z
" clip-path="url(#p0e72a23062)" style="fill: #e34948"/>
   </g>
   <g id="patch_9">
    <path d="M 559.316884 450.72 
L 587.449026 450.72 
L 587.449026 465.12 
L 559.316884 465.12 
L 559.316884 450.72 
z
" clip-path="url(#p0e72a23062)" style="fill: #d9d8d2"/>
   </g>
   <g id="patch_10">
    <path d="M 589.033026 450.72 
L 641.14527 450.72 
C 642.338238 450.72 643.30527 451.687032 643.30527 452.88 
L 643.30527 462.96 
C 643.30527 464.152968 642.338238 465.12 641.14527 465.12 
L 589.033026 465.12 
L 589.033026 450.72 
z
" clip-path="url(#p0e72a23062)" style="fill: #2a78d6"/>
   </g>
   <g id="patch_11">
    <path d="M 229.262126 484.56 
L 566.555389 484.56 
L 566.555389 498.96 
L 229.262126 498.96 
C 228.069158 498.96 227.102126 497.992968 227.102126 496.8 
L 227.102126 486.72 
C 227.102126 485.527032 228.069158 484.56 229.262126 484.56 
z
" clip-path="url(#p0e72a23062)" style="fill: #e34948"/>
   </g>
   <g id="patch_12">
    <path d="M 568.139389 484.56 
L 578.626521 484.56 
L 578.626521 498.96 
L 568.139389 498.96 
L 568.139389 484.56 
z
" clip-path="url(#p0e72a23062)" style="fill: #d9d8d2"/>
   </g>
   <g id="patch_13">
    <path d="M 580.210521 484.56 
L 659.447395 484.56 
C 660.640363 484.56 661.607395 485.527032 661.607395 486.72 
L 661.607395 496.8 
C 661.607395 497.992968 660.640363 498.96 659.447395 498.96 
L 580.210521 498.96 
L 580.210521 484.56 
z
" clip-path="url(#p0e72a23062)" style="fill: #2a78d6"/>
   </g>
   <g id="patch_14">
    <path d="M 220.788946 518.4 
L 549.301199 518.4 
L 549.301199 532.8 
L 220.788946 532.8 
C 219.595978 532.8 218.628946 531.832968 218.628946 530.64 
L 218.628946 520.56 
C 218.628946 519.367032 219.595978 518.4 220.788946 518.4 
z
" clip-path="url(#p0e72a23062)" style="fill: #e34948"/>
   </g>
   <g id="patch_15">
    <path d="M 550.885199 518.4 
L 595.880711 518.4 
L 595.880711 532.8 
L 550.885199 532.8 
L 550.885199 518.4 
z
" clip-path="url(#p0e72a23062)" style="fill: #d9d8d2"/>
   </g>
   <g id="patch_16">
    <path d="M 597.464711 518.4 
L 650.974215 518.4 
C 652.167183 518.4 653.134215 519.367032 653.134215 520.56 
L 653.134215 530.64 
C 653.134215 531.832968 652.167183 532.8 650.974215 532.8 
L 597.464711 532.8 
L 597.464711 518.4 
z
" clip-path="url(#p0e72a23062)" style="fill: #2a78d6"/>
   </g>
   <g id="patch_17">
    <path d="M 256.982553 552.24 
L 559.802509 552.24 
L 559.802509 566.64 
L 256.982553 566.64 
C 255.789585 566.64 254.822553 565.672968 254.822553 564.48 
L 254.822553 554.4 
C 254.822553 553.207032 255.789585 552.24 256.982553 552.24 
z
" clip-path="url(#p0e72a23062)" style="fill: #e34948"/>
   </g>
   <g id="patch_18">
    <path d="M 561.386509 552.24 
L 585.379401 552.24 
L 585.379401 566.64 
L 561.386509 566.64 
L 561.386509 552.24 
z
" clip-path="url(#p0e72a23062)" style="fill: #d9d8d2"/>
   </g>
   <g id="patch_19">
    <path d="M 586.963401 552.24 
L 687.167822 552.24 
C 688.36079 552.24 689.327822 553.207032 689.327822 554.4 
L 689.327822 564.48 
C 689.327822 565.672968 688.36079 566.64 687.167822 566.64 
L 586.963401 566.64 
L 586.963401 552.24 
z
" clip-path="url(#p0e72a23062)" style="fill: #2a78d6"/>
   </g>
   <g id="patch_20">
    <path d="M 269.82553 586.08 
L 557.880384 586.08 
L 557.880384 600.48 
L 269.82553 600.48 
C 268.632562 600.48 267.66553 599.512968 267.66553 598.32 
L 267.66553 588.24 
C 267.66553 587.047032 268.632562 586.08 269.82553 586.08 
z
" clip-path="url(#p0e72a23062)" style="fill: #e34948"/>
   </g>
   <g id="patch_21">
    <path d="M 559.464384 586.08 
L 587.301526 586.08 
L 587.301526 600.48 
L 559.464384 600.48 
L 559.464384 586.08 
z
" clip-path="url(#p0e72a23062)" style="fill: #d9d8d2"/>
   </g>
   <g id="patch_22">
    <path d="M 588.885526 586.08 
L 700.010799 586.08 
C 701.203767 586.08 702.170799 587.047032 702.170799 588.24 
L 702.170799 598.32 
C 702.170799 599.512968 701.203767 600.48 700.010799 600.48 
L 588.885526 600.48 
L 588.885526 586.08 
z
" clip-path="url(#p0e72a23062)" style="fill: #2a78d6"/>
   </g>
   <g id="patch_23">
    <path d="M 370.45473 619.92 
L 566.90624 619.92 
L 566.90624 634.32 
L 370.45473 634.32 
C 369.261762 634.32 368.29473 633.352968 368.29473 632.16 
L 368.29473 622.08 
C 368.29473 620.887032 369.261762 619.92 370.45473 619.92 
z
" clip-path="url(#p0e72a23062)" style="fill: #e34948"/>
   </g>
   <g id="patch_24">
    <path d="M 568.49024 619.92 
L 578.27567 619.92 
L 578.27567 634.32 
L 568.49024 634.32 
L 568.49024 619.92 
z
" clip-path="url(#p0e72a23062)" style="fill: #d9d8d2"/>
   </g>
   <g id="patch_25">
    <path d="M 579.85967 619.92 
L 800.64 619.92 
C 801.832968 619.92 802.8 620.887032 802.8 622.08 
L 802.8 632.16 
C 802.8 633.352968 801.832968 634.32 800.64 634.32 
L 579.85967 634.32 
L 579.85967 619.92 
z
" clip-path="url(#p0e72a23062)" style="fill: #2a78d6"/>
   </g>
   <g id="patch_26">
    <path d="M 277.2 724.32 
L 786.143124 724.32 
C 787.25656 724.32 788.159124 725.222563 788.159124 726.336 
L 788.159124 734.544 
C 788.159124 735.657437 787.25656 736.56 786.143124 736.56 
L 277.2 736.56 
L 277.2 724.32 
z
" clip-path="url(#p0e72a23062)" style="fill: #e34948"/>
   </g>
   <g id="patch_27">
    <path d="M 277.2 748.44 
L 382.20725 748.44 
C 383.320687 748.44 384.22325 749.342563 384.22325 750.456 
L 384.22325 758.664 
C 384.22325 759.777437 383.320687 760.68 382.20725 760.68 
L 277.2 760.68 
L 277.2 748.44 
z
" clip-path="url(#p0e72a23062)" style="fill: #e34948"/>
   </g>
   <g id="patch_28">
    <path d="M 277.2 772.56 
L 371.662977 772.56 
C 372.776414 772.56 373.678977 773.462563 373.678977 774.576 
L 373.678977 782.784 
C 373.678977 783.897437 372.776414 784.8 371.662977 784.8 
L 277.2 784.8 
L 277.2 772.56 
z
" clip-path="url(#p0e72a23062)" style="fill: #2a78d6"/>
   </g>
   <g id="patch_29">
    <path d="M 277.2 796.68 
L 303.149803 796.68 
L 303.149803 808.92 
L 277.2 808.92 
L 277.2 796.68 
z
" clip-path="url(#p0e72a23062)" style="fill: #e34948"/>
   </g>
   <g id="patch_30">
    <path d="M 304.733803 796.68 
L 341.365775 796.68 
L 341.365775 808.92 
L 304.733803 808.92 
L 304.733803 796.68 
z
" clip-path="url(#p0e72a23062)" style="fill: #d9d8d2"/>
   </g>
   <g id="patch_31">
    <path d="M 342.949775 796.68 
L 358.439232 796.68 
C 359.552668 796.68 360.455232 797.582563 360.455232 798.696 
L 360.455232 806.904 
C 360.455232 808.017437 359.552668 808.92 358.439232 808.92 
L 342.949775 808.92 
L 342.949775 796.68 
z
" clip-path="url(#p0e72a23062)" style="fill: #2a78d6"/>
   </g>
   <g id="patch_32">
    <path d="M 277.2 820.8 
L 357.48499 820.8 
C 358.598427 820.8 359.50099 821.702563 359.50099 822.816 
L 359.50099 831.024 
C 359.50099 832.137437 358.598427 833.04 357.48499 833.04 
L 277.2 833.04 
L 277.2 820.8 
z
" clip-path="url(#p0e72a23062)" style="fill: #e34948"/>
   </g>
   <g id="patch_33">
    <path d="M 277.2 844.92 
L 351.519643 844.92 
L 351.519643 857.16 
L 277.2 857.16 
L 277.2 844.92 
z
" clip-path="url(#p0e72a23062)" style="fill: #e34948"/>
   </g>
   <g id="patch_34">
    <path d="M 353.103643 844.92 
L 354.97518 844.92 
C 356.00883 844.92 356.846717 845.757887 356.846717 846.791537 
L 356.846717 855.288463 
C 356.846717 856.322113 356.00883 857.16 354.97518 857.16 
L 353.103643 857.16 
L 353.103643 844.92 
z
" clip-path="url(#p0e72a23062)" style="fill: #d9d8d2"/>
   </g>
   <g id="patch_35">
    <path d="M 277.2 869.04 
L 354.64654 869.04 
C 355.759976 869.04 356.66254 869.942563 356.66254 871.056 
L 356.66254 879.264 
C 356.66254 880.377437 355.759976 881.28 354.64654 881.28 
L 277.2 881.28 
L 277.2 869.04 
z
" clip-path="url(#p0e72a23062)" style="fill: #2a78d6"/>
   </g>
   <g id="patch_36">
    <path d="M 277.2 893.16 
L 345.738608 893.16 
L 345.738608 905.4 
L 277.2 905.4 
L 277.2 893.16 
z
" clip-path="url(#p0e72a23062)" style="fill: #e34948"/>
   </g>
   <g id="patch_37">
    <path d="M 347.322608 893.16 
L 349.763048 893.16 
C 350.876485 893.16 351.779048 894.062563 351.779048 895.176 
L 351.779048 903.384 
C 351.779048 904.497437 350.876485 905.4 349.763048 905.4 
L 347.322608 905.4 
L 347.322608 893.16 
z
" clip-path="url(#p0e72a23062)" style="fill: #2a78d6"/>
   </g>
   <g id="patch_38">
    <path d="M 277.2 917.28 
L 344.190464 917.28 
C 345.303901 917.28 346.206464 918.182563 346.206464 919.296 
L 346.206464 927.504 
C 346.206464 928.617437 345.303901 929.52 344.190464 929.52 
L 277.2 929.52 
L 277.2 917.28 
z
" clip-path="url(#p0e72a23062)" style="fill: #e34948"/>
   </g>
   <g id="patch_39">
    <path d="M 277.2 941.4 
L 339.095002 941.4 
C 340.208438 941.4 341.111002 942.302563 341.111002 943.416 
L 341.111002 951.624 
C 341.111002 952.737437 340.208438 953.64 339.095002 953.64 
L 277.2 953.64 
L 277.2 941.4 
z
" clip-path="url(#p0e72a23062)" style="fill: #e34948"/>
   </g>
   <g id="patch_40">
    <path d="M 277.2 965.52 
L 337.923045 965.52 
C 339.036482 965.52 339.939045 966.422563 339.939045 967.536 
L 339.939045 975.744 
C 339.939045 976.857437 339.036482 977.76 337.923045 977.76 
L 277.2 977.76 
L 277.2 965.52 
z
" clip-path="url(#p0e72a23062)" style="fill: #e34948"/>
   </g>
   <g id="patch_41">
    <path d="M 277.2 989.64 
L 305.933779 989.64 
L 305.933779 1001.88 
L 277.2 1001.88 
L 277.2 989.64 
z
" clip-path="url(#p0e72a23062)" style="fill: #e34948"/>
   </g>
   <g id="patch_42">
    <path d="M 307.517779 989.64 
L 333.531683 989.64 
C 334.645119 989.64 335.547683 990.542563 335.547683 991.656 
L 335.547683 999.864 
C 335.547683 1000.977437 334.645119 1001.88 333.531683 1001.88 
L 307.517779 1001.88 
L 307.517779 989.64 
z
" clip-path="url(#p0e72a23062)" style="fill: #2a78d6"/>
   </g>
   <g id="line2d_1">
    <path d="M 572.590955 446.4 
L 572.590955 638.64 
" clip-path="url(#p0e72a23062)" style="fill: none; stroke: #e1e0d9; stroke-width: 0.9; stroke-linecap: square"/>
   </g>
   <g id="line2d_2">
    <path d="M 64.8 1033.92 
L 842.4 1033.92 
" clip-path="url(#p0e72a23062)" style="fill: none; stroke: #e1e0d9; stroke-width: 0.9"/>
   </g>
   <g id="text_1">
    <text style="font-weight: 700; font-size: 10.5px; font-family: 'Helvetica Neue', 'Arial', 'DejaVu Sans', sans-serif; text-anchor: start; fill: #898781" x="64.8" y="73.44" transform="rotate(-0 64.8 73.44)">A M E R I C A N   S P O R T S   O W N E R S   ·   F E D E R A L   P O L I T I C A L   G I V I N G   ·   2 0 1 6 – 2 0 2 0</text>
   </g>
   <g id="text_2">
    <text style="font-weight: 700; font-size: 27px; font-family: 'Helvetica Neue', 'Arial', 'DejaVu Sans', sans-serif; text-anchor: start; fill: #0b0b0b" x="64.8" y="112.32" transform="rotate(-0 64.8 112.32)">The owner's box leans red</text>
   </g>
   <g id="text_3">
    <text style="font-size: 11.5px; font-family: 'Helvetica Neue', 'Arial', 'DejaVu Sans', sans-serif; fill: #52514e" transform="translate(64.8 144.803883)">Owners and commissioners across six U.S. sports leagues made $47.0 million in federal political contributions over the 2016,</text>
    <text style="font-size: 11.5px; font-family: 'Helvetica Neue', 'Arial', 'DejaVu Sans', sans-serif; fill: #52514e" transform="translate(64.8 165.138758)">2018 and 2020 election cycles, per FiveThirtyEight's donation tracker — 73% of the money went to Republican candidates and</text>
    <text style="font-size: 11.5px; font-family: 'Helvetica Neue', 'Arial', 'DejaVu Sans', sans-serif; fill: #52514e" transform="translate(64.8 185.956094)">PACs, and only one league's ownership tilted blue: the WNBA's.</text>
   </g>
   <g id="text_4">
    <text style="font-size: 9.5px; font-family: 'Helvetica Neue', 'Arial', 'DejaVu Sans', sans-serif; text-anchor: start; fill: #52514e" x="80.64" y="266.4" transform="rotate(-0 80.64 266.4)">Total contributions</text>
   </g>
   <g id="text_5">
    <text style="font-weight: 700; font-size: 17px; font-family: 'Helvetica Neue', 'Arial', 'DejaVu Sans', sans-serif; text-anchor: start; fill: #0b0b0b" x="80.64" y="300.24" transform="rotate(-0 80.64 300.24)">$47.0M</text>
   </g>
   <g id="text_6">
    <text style="font-size: 8.5px; font-family: 'Helvetica Neue', 'Arial', 'DejaVu Sans', sans-serif; text-anchor: start; fill: #898781" x="80.64" y="318.24" transform="rotate(-0 80.64 318.24)">2,798 donations · 158 owners &amp; commissioners</text>
   </g>
   <g id="text_7">
    <text style="font-size: 9.5px; font-family: 'Helvetica Neue', 'Arial', 'DejaVu Sans', sans-serif; text-anchor: start; fill: #52514e" x="345.6" y="266.4" transform="rotate(-0 345.6 266.4)">To Republican candidates &amp; PACs</text>
   </g>
   <g id="text_8">
    <text style="font-weight: 700; font-size: 17px; font-family: 'Helvetica Neue', 'Arial', 'DejaVu Sans', sans-serif; text-anchor: start; fill: #0b0b0b" x="345.6" y="300.24" transform="rotate(-0 345.6 300.24)">$34.5M</text>
   </g>
   <g id="text_9">
    <text style="font-size: 8.5px; font-family: 'Helvetica Neue', 'Arial', 'DejaVu Sans', sans-serif; text-anchor: start; fill: #898781" x="345.6" y="318.24" transform="rotate(-0 345.6 318.24)">73% of all dollars</text>
   </g>
   <g id="text_10">
    <text style="font-size: 9.5px; font-family: 'Helvetica Neue', 'Arial', 'DejaVu Sans', sans-serif; text-anchor: start; fill: #52514e" x="610.56" y="266.4" transform="rotate(-0 610.56 266.4)">To Democratic candidates &amp; PACs</text>
   </g>
   <g id="text_11">
    <text style="font-weight: 700; font-size: 17px; font-family: 'Helvetica Neue', 'Arial', 'DejaVu Sans', sans-serif; text-anchor: start; fill: #0b0b0b" x="610.56" y="300.24" transform="rotate(-0 610.56 300.24)">$10.1M</text>
   </g>
   <g id="text_12">
    <text style="font-size: 8.5px; font-family: 'Helvetica Neue', 'Arial', 'DejaVu Sans', sans-serif; text-anchor: start; fill: #898781" x="610.56" y="318.24" transform="rotate(-0 610.56 318.24)">22% — rest bipartisan or unlisted (5%)</text>
   </g>
   <g id="text_13">
    <text style="font-weight: 700; font-size: 15.5px; font-family: 'Helvetica Neue', 'Arial', 'DejaVu Sans', sans-serif; text-anchor: start; fill: #0b0b0b" x="64.8" y="377.28" transform="rotate(-0 64.8 377.28)">Where each league's money went</text>
   </g>
   <g id="text_14">
    <text style="font-size: 9.5px; font-family: 'Helvetica Neue', 'Arial', 'DejaVu Sans', sans-serif; text-anchor: start; fill: #52514e" x="64.8" y="401.76" transform="rotate(-0 64.8 401.76)">Share of each ownership group's dollars by the recipient's party lean. Owners with teams in several leagues count toward each of them.</text>
   </g>
   <g id="text_15">
    <text style="font-size: 8.5px; font-family: 'Helvetica Neue', 'Arial', 'DejaVu Sans', sans-serif; text-anchor: start; fill: #52514e" x="77.76" y="430.56" transform="rotate(-0 77.76 430.56)">Republican</text>
   </g>
   <g id="text_16">
    <text style="font-size: 8.5px; font-family: 'Helvetica Neue', 'Arial', 'DejaVu Sans', sans-serif; text-anchor: start; fill: #52514e" x="153.36" y="430.56" transform="rotate(-0 153.36 430.56)">bipartisan / no party listed</text>
   </g>
   <g id="text_17">
    <text style="font-size: 8.5px; font-family: 'Helvetica Neue', 'Arial', 'DejaVu Sans', sans-serif; text-anchor: start; fill: #52514e" x="300.24" y="430.56" transform="rotate(-0 300.24 430.56)">Democratic</text>
   </g>
   <g id="text_18">
    <text style="font-weight: 700; font-size: 10px; font-family: 'Helvetica Neue', 'Arial', 'DejaVu Sans', sans-serif; text-anchor: start; fill: #0b0b0b" x="64.8" y="462.6" transform="rotate(-0 64.8 462.6)">NASCAR</text>
   </g>
   <g id="text_19">
    <text style="font-size: 8px; font-family: 'Helvetica Neue', 'Arial', 'DejaVu Sans', sans-serif; text-anchor: start; fill: #898781" x="64.8" y="474.84" transform="rotate(-0 64.8 474.84)">$0.7M</text>
   </g>
   <g id="text_20">
    <text style="font-weight: 700; font-size: 9px; font-family: 'Helvetica Neue', 'Arial', 'DejaVu Sans', sans-serif; text-anchor: end; fill: #0b0b0b" x="200.16" y="462.24" transform="rotate(-0 200.16 462.24)">80%</text>
   </g>
   <g id="text_21">
    <text style="font-weight: 700; font-size: 9px; font-family: 'Helvetica Neue', 'Arial', 'DejaVu Sans', sans-serif; text-anchor: start; fill: #0b0b0b" x="651.94527" y="462.24" transform="rotate(-0 651.94527 462.24)">13%</text>
   </g>
   <g id="text_22">
    <text style="font-weight: 700; font-size: 10px; font-family: 'Helvetica Neue', 'Arial', 'DejaVu Sans', sans-serif; text-anchor: start; fill: #0b0b0b" x="64.8" y="496.44" transform="rotate(-0 64.8 496.44)">NHL</text>
   </g>
   <g id="text_23">
    <text style="font-size: 8px; font-family: 'Helvetica Neue', 'Arial', 'DejaVu Sans', sans-serif; text-anchor: start; fill: #898781" x="64.8" y="508.68" transform="rotate(-0 64.8 508.68)">$9.1M</text>
   </g>
   <g id="text_24">
    <text style="font-weight: 700; font-size: 9px; font-family: 'Helvetica Neue', 'Arial', 'DejaVu Sans', sans-serif; text-anchor: end; fill: #0b0b0b" x="218.462126" y="496.08" transform="rotate(-0 218.462126 496.08)">78%</text>
   </g>
   <g id="text_25">
    <text style="font-weight: 700; font-size: 9px; font-family: 'Helvetica Neue', 'Arial', 'DejaVu Sans', sans-serif; text-anchor: start; fill: #0b0b0b" x="670.247395" y="496.08" transform="rotate(-0 670.247395 496.08)">19%</text>
   </g>
   <g id="text_26">
    <text style="font-weight: 700; font-size: 10px; font-family: 'Helvetica Neue', 'Arial', 'DejaVu Sans', sans-serif; text-anchor: start; fill: #0b0b0b" x="64.8" y="530.28" transform="rotate(-0 64.8 530.28)">NFL</text>
   </g>
   <g id="text_27">
    <text style="font-size: 8px; font-family: 'Helvetica Neue', 'Arial', 'DejaVu Sans', sans-serif; text-anchor: start; fill: #898781" x="64.8" y="542.52" transform="rotate(-0 64.8 542.52)">$6.6M</text>
   </g>
   <g id="text_28">
    <text style="font-weight: 700; font-size: 9px; font-family: 'Helvetica Neue', 'Arial', 'DejaVu Sans', sans-serif; text-anchor: end; fill: #0b0b0b" x="209.988946" y="529.92" transform="rotate(-0 209.988946 529.92)">76%</text>
   </g>
   <g id="text_29">
    <text style="font-weight: 700; font-size: 9px; font-family: 'Helvetica Neue', 'Arial', 'DejaVu Sans', sans-serif; text-anchor: start; fill: #0b0b0b" x="661.774215" y="529.92" transform="rotate(-0 661.774215 529.92)">13%</text>
   </g>
   <g id="text_30">
    <text style="font-weight: 700; font-size: 10px; font-family: 'Helvetica Neue', 'Arial', 'DejaVu Sans', sans-serif; text-anchor: start; fill: #0b0b0b" x="64.8" y="564.12" transform="rotate(-0 64.8 564.12)">MLB</text>
   </g>
   <g id="text_31">
    <text style="font-size: 8px; font-family: 'Helvetica Neue', 'Arial', 'DejaVu Sans', sans-serif; text-anchor: start; fill: #898781" x="64.8" y="576.36" transform="rotate(-0 64.8 576.36)">$21.7M</text>
   </g>
   <g id="text_32">
    <text style="font-weight: 700; font-size: 9px; font-family: 'Helvetica Neue', 'Arial', 'DejaVu Sans', sans-serif; text-anchor: end; fill: #0b0b0b" x="246.182553" y="563.76" transform="rotate(-0 246.182553 563.76)">70%</text>
   </g>
   <g id="text_33">
    <text style="font-weight: 700; font-size: 9px; font-family: 'Helvetica Neue', 'Arial', 'DejaVu Sans', sans-serif; text-anchor: start; fill: #0b0b0b" x="697.967822" y="563.76" transform="rotate(-0 697.967822 563.76)">24%</text>
   </g>
   <g id="text_34">
    <text style="font-weight: 700; font-size: 10px; font-family: 'Helvetica Neue', 'Arial', 'DejaVu Sans', sans-serif; text-anchor: start; fill: #0b0b0b" x="64.8" y="597.96" transform="rotate(-0 64.8 597.96)">NBA</text>
   </g>
   <g id="text_35">
    <text style="font-size: 8px; font-family: 'Helvetica Neue', 'Arial', 'DejaVu Sans', sans-serif; text-anchor: start; fill: #898781" x="64.8" y="610.2" transform="rotate(-0 64.8 610.2)">$14.2M</text>
   </g>
   <g id="text_36">
    <text style="font-weight: 700; font-size: 9px; font-family: 'Helvetica Neue', 'Arial', 'DejaVu Sans', sans-serif; text-anchor: end; fill: #0b0b0b" x="259.02553" y="597.6" transform="rotate(-0 259.02553 597.6)">67%</text>
   </g>
   <g id="text_37">
    <text style="font-weight: 700; font-size: 9px; font-family: 'Helvetica Neue', 'Arial', 'DejaVu Sans', sans-serif; text-anchor: start; fill: #0b0b0b" x="710.810799" y="597.6" transform="rotate(-0 710.810799 597.6)">26%</text>
   </g>
   <g id="text_38">
    <text style="font-weight: 700; font-size: 10px; font-family: 'Helvetica Neue', 'Arial', 'DejaVu Sans', sans-serif; text-anchor: start; fill: #0b0b0b" x="64.8" y="631.8" transform="rotate(-0 64.8 631.8)">WNBA</text>
   </g>
   <g id="text_39">
    <text style="font-size: 8px; font-family: 'Helvetica Neue', 'Arial', 'DejaVu Sans', sans-serif; text-anchor: start; fill: #898781" x="64.8" y="644.04" transform="rotate(-0 64.8 644.04)">$3.2M</text>
   </g>
   <g id="text_40">
    <text style="font-weight: 700; font-size: 9px; font-family: 'Helvetica Neue', 'Arial', 'DejaVu Sans', sans-serif; text-anchor: end; fill: #0b0b0b" x="359.65473" y="631.44" transform="rotate(-0 359.65473 631.44)">46%</text>
   </g>
   <g id="text_41">
    <text style="font-weight: 700; font-size: 9px; font-family: 'Helvetica Neue', 'Arial', 'DejaVu Sans', sans-serif; text-anchor: start; fill: #0b0b0b" x="811.44" y="631.44" transform="rotate(-0 811.44 631.44)">52%</text>
   </g>
   <g id="text_42">
    <text style="font-weight: 700; font-size: 15.5px; font-family: 'Helvetica Neue', 'Arial', 'DejaVu Sans', sans-serif; text-anchor: start; fill: #0b0b0b" x="64.8" y="675.36" transform="rotate(-0 64.8 675.36)">The twelve biggest checkbooks</text>
   </g>
   <g id="text_43">
    <text style="font-size: 9.5px; font-family: 'Helvetica Neue', 'Arial', 'DejaVu Sans', sans-serif; text-anchor: start; fill: #52514e" x="64.8" y="699.84" transform="rotate(-0 64.8 699.84)">Total federal giving by owner, 2016–2020 combined — same party coloring. One donor, Giants owner Charles Johnson, accounts for almost a quarter of all the money.</text>
   </g>
   <g id="text_44">
    <text style="font-weight: 700; font-size: 9px; font-family: 'Helvetica Neue', 'Arial', 'DejaVu Sans', sans-serif; text-anchor: end; fill: #0b0b0b" x="265.68" y="734.76" transform="rotate(-0 265.68 734.76)">Charles Johnson</text>
   </g>
   <g id="text_45">
    <text style="font-size: 7.5px; font-family: 'Helvetica Neue', 'Arial', 'DejaVu Sans', sans-serif; text-anchor: end; fill: #898781" x="265.68" y="745.56" transform="rotate(-0 265.68 745.56)">Giants (MLB)</text>
   </g>
   <g id="text_46">
    <text style="font-size: 8.5px; font-family: 'Helvetica Neue', 'Arial', 'DejaVu Sans', sans-serif; text-anchor: start; fill: #52514e" x="795.359124" y="734.4" transform="rotate(-0 795.359124 734.4)">$11.0M</text>
   </g>
   <g id="text_47">
    <text style="font-weight: 700; font-size: 9px; font-family: 'Helvetica Neue', 'Arial', 'DejaVu Sans', sans-serif; text-anchor: end; fill: #0b0b0b" x="265.68" y="758.88" transform="rotate(-0 265.68 758.88)">Dan DeVos</text>
   </g>
   <g id="text_48">
    <text style="font-size: 7.5px; font-family: 'Helvetica Neue', 'Arial', 'DejaVu Sans', sans-serif; text-anchor: end; fill: #898781" x="265.68" y="769.68" transform="rotate(-0 265.68 769.68)">Magic (NBA)</text>
   </g>
   <g id="text_49">
    <text style="font-size: 8.5px; font-family: 'Helvetica Neue', 'Arial', 'DejaVu Sans', sans-serif; text-anchor: start; fill: #52514e" x="391.42325" y="758.52" transform="rotate(-0 391.42325 758.52)">$2.3M</text>
   </g>
   <g id="text_50">
    <text style="font-weight: 700; font-size: 9px; font-family: 'Helvetica Neue', 'Arial', 'DejaVu Sans', sans-serif; text-anchor: end; fill: #0b0b0b" x="265.68" y="783" transform="rotate(-0 265.68 783)">Peter Angelos</text>
   </g>
   <g id="text_51">
    <text style="font-size: 7.5px; font-family: 'Helvetica Neue', 'Arial', 'DejaVu Sans', sans-serif; text-anchor: end; fill: #898781" x="265.68" y="793.8" transform="rotate(-0 265.68 793.8)">Orioles (MLB)</text>
   </g>
   <g id="text_52">
    <text style="font-size: 8.5px; font-family: 'Helvetica Neue', 'Arial', 'DejaVu Sans', sans-serif; text-anchor: start; fill: #52514e" x="380.878977" y="782.64" transform="rotate(-0 380.878977 782.64)">$2.1M</text>
   </g>
   <g id="text_53">
    <text style="font-weight: 700; font-size: 9px; font-family: 'Helvetica Neue', 'Arial', 'DejaVu Sans', sans-serif; text-anchor: end; fill: #0b0b0b" x="265.68" y="807.12" transform="rotate(-0 265.68 807.12)">Jerry Reinsdorf</text>
   </g>
   <g id="text_54">
    <text style="font-size: 7.5px; font-family: 'Helvetica Neue', 'Arial', 'DejaVu Sans', sans-serif; text-anchor: end; fill: #898781" x="265.68" y="817.92" transform="rotate(-0 265.68 817.92)">Bulls + White Sox</text>
   </g>
   <g id="text_55">
    <text style="font-size: 8.5px; font-family: 'Helvetica Neue', 'Arial', 'DejaVu Sans', sans-serif; text-anchor: start; fill: #52514e" x="367.655232" y="806.76" transform="rotate(-0 367.655232 806.76)">$1.8M</text>
   </g>
   <g id="text_56">
    <text style="font-weight: 700; font-size: 9px; font-family: 'Helvetica Neue', 'Arial', 'DejaVu Sans', sans-serif; text-anchor: end; fill: #0b0b0b" x="265.68" y="831.24" transform="rotate(-0 265.68 831.24)">Philip F. Anschutz</text>
   </g>
   <g id="text_57">
    <text style="font-size: 7.5px; font-family: 'Helvetica Neue', 'Arial', 'DejaVu Sans', sans-serif; text-anchor: end; fill: #898781" x="265.68" y="842.04" transform="rotate(-0 265.68 842.04)">Kings (NHL)</text>
   </g>
   <g id="text_58">
    <text style="font-size: 8.5px; font-family: 'Helvetica Neue', 'Arial', 'DejaVu Sans', sans-serif; text-anchor: start; fill: #52514e" x="366.70099" y="830.88" transform="rotate(-0 366.70099 830.88)">$1.8M</text>
   </g>
   <g id="text_59">
    <text style="font-weight: 700; font-size: 9px; font-family: 'Helvetica Neue', 'Arial', 'DejaVu Sans', sans-serif; text-anchor: end; fill: #0b0b0b" x="265.68" y="855.36" transform="rotate(-0 265.68 855.36)">Jimmy and Susan Haslam</text>
   </g>
   <g id="text_60">
    <text style="font-size: 7.5px; font-family: 'Helvetica Neue', 'Arial', 'DejaVu Sans', sans-serif; text-anchor: end; fill: #898781" x="265.68" y="866.16" transform="rotate(-0 265.68 866.16)">Browns (NFL)</text>
   </g>
   <g id="text_61">
    <text style="font-size: 8.5px; font-family: 'Helvetica Neue', 'Arial', 'DejaVu Sans', sans-serif; text-anchor: start; fill: #52514e" x="364.046717" y="855" transform="rotate(-0 364.046717 855)">$1.7M</text>
   </g>
   <g id="text_62">
    <text style="font-weight: 700; font-size: 9px; font-family: 'Helvetica Neue', 'Arial', 'DejaVu Sans', sans-serif; text-anchor: end; fill: #0b0b0b" x="265.68" y="879.48" transform="rotate(-0 265.68 879.48)">Laura Ricketts</text>
   </g>
   <g id="text_63">
    <text style="font-size: 7.5px; font-family: 'Helvetica Neue', 'Arial', 'DejaVu Sans', sans-serif; text-anchor: end; fill: #898781" x="265.68" y="890.28" transform="rotate(-0 265.68 890.28)">Cubs (MLB)</text>
   </g>
   <g id="text_64">
    <text style="font-size: 8.5px; font-family: 'Helvetica Neue', 'Arial', 'DejaVu Sans', sans-serif; text-anchor: start; fill: #52514e" x="363.86254" y="879.12" transform="rotate(-0 363.86254 879.12)">$1.7M</text>
   </g>
   <g id="text_65">
    <text style="font-weight: 700; font-size: 9px; font-family: 'Helvetica Neue', 'Arial', 'DejaVu Sans', sans-serif; text-anchor: end; fill: #0b0b0b" x="265.68" y="903.6" transform="rotate(-0 265.68 903.6)">James L. Dolan</text>
   </g>
   <g id="text_66">
    <text style="font-size: 7.5px; font-family: 'Helvetica Neue', 'Arial', 'DejaVu Sans', sans-serif; text-anchor: end; fill: #898781" x="265.68" y="914.4" transform="rotate(-0 265.68 914.4)">Knicks + Rangers</text>
   </g>
   <g id="text_67">
    <text style="font-size: 8.5px; font-family: 'Helvetica Neue', 'Arial', 'DejaVu Sans', sans-serif; text-anchor: start; fill: #52514e" x="358.979048" y="903.24" transform="rotate(-0 358.979048 903.24)">$1.6M</text>
   </g>
   <g id="text_68">
    <text style="font-weight: 700; font-size: 9px; font-family: 'Helvetica Neue', 'Arial', 'DejaVu Sans', sans-serif; text-anchor: end; fill: #0b0b0b" x="265.68" y="927.72" transform="rotate(-0 265.68 927.72)">Dan Gilbert</text>
   </g>
   <g id="text_69">
    <text style="font-size: 7.5px; font-family: 'Helvetica Neue', 'Arial', 'DejaVu Sans', sans-serif; text-anchor: end; fill: #898781" x="265.68" y="938.52" transform="rotate(-0 265.68 938.52)">Cavaliers (NBA)</text>
   </g>
   <g id="text_70">
    <text style="font-size: 8.5px; font-family: 'Helvetica Neue', 'Arial', 'DejaVu Sans', sans-serif; text-anchor: start; fill: #52514e" x="353.406464" y="927.36" transform="rotate(-0 353.406464 927.36)">$1.5M</text>
   </g>
   <g id="text_71">
    <text style="font-weight: 700; font-size: 9px; font-family: 'Helvetica Neue', 'Arial', 'DejaVu Sans', sans-serif; text-anchor: end; fill: #0b0b0b" x="265.68" y="951.84" transform="rotate(-0 265.68 951.84)">Ken Kendrick</text>
   </g>
   <g id="text_72">
    <text style="font-size: 7.5px; font-family: 'Helvetica Neue', 'Arial', 'DejaVu Sans', sans-serif; text-anchor: end; fill: #898781" x="265.68" y="962.64" transform="rotate(-0 265.68 962.64)">D-backs (MLB)</text>
   </g>
   <g id="text_73">
    <text style="font-size: 8.5px; font-family: 'Helvetica Neue', 'Arial', 'DejaVu Sans', sans-serif; text-anchor: start; fill: #52514e" x="348.311002" y="951.48" transform="rotate(-0 348.311002 951.48)">$1.4M</text>
   </g>
   <g id="text_74">
    <text style="font-weight: 700; font-size: 9px; font-family: 'Helvetica Neue', 'Arial', 'DejaVu Sans', sans-serif; text-anchor: end; fill: #0b0b0b" x="265.68" y="975.96" transform="rotate(-0 265.68 975.96)">Janice S. McNair</text>
   </g>
   <g id="text_75">
    <text style="font-size: 7.5px; font-family: 'Helvetica Neue', 'Arial', 'DejaVu Sans', sans-serif; text-anchor: end; fill: #898781" x="265.68" y="986.76" transform="rotate(-0 265.68 986.76)">Texans (NFL)</text>
   </g>
   <g id="text_76">
    <text style="font-size: 8.5px; font-family: 'Helvetica Neue', 'Arial', 'DejaVu Sans', sans-serif; text-anchor: start; fill: #52514e" x="347.139045" y="975.6" transform="rotate(-0 347.139045 975.6)">$1.4M</text>
   </g>
   <g id="text_77">
    <text style="font-weight: 700; font-size: 9px; font-family: 'Helvetica Neue', 'Arial', 'DejaVu Sans', sans-serif; text-anchor: end; fill: #0b0b0b" x="265.68" y="1000.08" transform="rotate(-0 265.68 1000.08)">Ron Burkle</text>
   </g>
   <g id="text_78">
    <text style="font-size: 7.5px; font-family: 'Helvetica Neue', 'Arial', 'DejaVu Sans', sans-serif; text-anchor: end; fill: #898781" x="265.68" y="1010.88" transform="rotate(-0 265.68 1010.88)">Penguins (NHL)</text>
   </g>
   <g id="text_79">
    <text style="font-size: 8.5px; font-family: 'Helvetica Neue', 'Arial', 'DejaVu Sans', sans-serif; text-anchor: start; fill: #52514e" x="342.747683" y="999.72" transform="rotate(-0 342.747683 999.72)">$1.3M</text>
   </g>
   <g id="text_80">
    <text style="font-size: 7.3px; font-family: 'Helvetica Neue', 'Arial', 'DejaVu Sans', sans-serif; fill: #898781" transform="translate(64.8 1054.361056)">Source: “Political donations by American sports owners” (Kaggle · rahul253801, v1) — FiveThirtyEight's compilation of FEC records: 2,798 contributions to federal candidates,</text>
    <text style="font-size: 7.3px; font-family: 'Helvetica Neue', 'Arial', 'DejaVu Sans', sans-serif; fill: #898781" transform="translate(64.8 1068.400895)">parties and PACs by 158 owners and commissioners in MLB, NBA, NFL, NHL, WNBA and NASCAR, 2016 / 2018 / 2020 cycles, with each recipient's party lean as classified by</text>
    <text style="font-size: 7.3px; font-family: 'Helvetica Neue', 'Arial', 'DejaVu Sans', sans-serif; fill: #898781" transform="translate(64.8 1082.667148)">FiveThirtyEight. “Mostly Republican / mostly Democratic” bipartisan committees are folded into the respective party; $0.85M to committees with no party listed (largely Jerry</text>
    <text style="font-size: 7.3px; font-family: 'Helvetica Neue', 'Arial', 'DejaVu Sans', sans-serif; fill: #898781" transform="translate(64.8 1096.699573)">Reinsdorf's $0.8M to three PACs) is counted as gray alongside bipartisan giving. League shares double-count owners who hold teams in more than one league.</text>
   </g>
  </g>
 </g>
 <defs>
  <clipPath id="p0e72a23062">
   <rect x="0" y="0" width="907.2" height="1123.2"/>
  </clipPath>
 </defs>
</svg>
